<svg xml:space="preserve" style="enable-background:new 0 0 500 500;" viewBox="0 0 500 500" y="0px" x="0px" xmlns:xlink="http://www.w3.org/1999/xlink" xmlns="http://www.w3.org/2000/svg" id="logo" version="1.1">
<g>
	<defs>
		<path d="M0,0v500h500V0H0z M380.05,285.444c-12.632,19.753-33.879,31.546-56.835,31.546
			c-8.682,0-17.196-1.67-25.307-4.965c-1.057-0.429-1.985-1.074-2.749-1.869c-9.488,5.122-20.326,8.035-31.83,8.036
			c-10.771,0-21.055-2.353-30.329-6.869c-0.598,0.462-1.262,0.848-1.988,1.131c-7.756,3.019-15.807,4.55-23.93,4.55
			c-16.265,0-31.967-5.898-44.212-16.609c-10.339-9.043-17.647-20.988-21.012-34.165h-7.905c-8.416,0-15.263-6.952-15.263-15.497
			c0-8.545,6.847-15.497,15.263-15.497h7.074c2.921-13.325,10.046-25.675,20.509-35.345c12.616-11.661,28.763-18.083,45.466-18.083
			c7.855,0,15.934,1.575,24.012,4.682c1.833,0.705,3.295,2.049,4.184,3.726c8.76-4.24,18.274-6.45,28.13-6.45
			c10.766,0,21.129,2.468,30.444,7.098c0.856-1.712,2.299-3.1,4.131-3.844c8.111-3.295,16.627-4.966,25.31-4.966
			c8.191,0,16.245,1.497,23.937,4.449c4.117,1.58,6.179,6.193,4.61,10.315l-5.119,13.449c-1.214,3.191-4.251,5.156-7.478,5.156
			c-0.923,0-1.862-0.161-2.778-0.5c-4.196-1.554-8.627-2.342-13.172-2.342c-1.338,0-2.697,0.083-4.067,0.241
			c7.57,10.959,11.649,23.944,11.649,37.607c0,13.179-3.779,25.483-10.286,35.901c0.908,0.07,1.812,0.118,2.706,0.118
			c12.784,0,24.441-6.415,31.185-17.161c1.519-2.421,4.122-3.749,6.784-3.749c1.45,0,2.917,0.394,4.237,1.22l12.134,7.594
			c1.81,1.133,3.092,2.942,3.561,5.025C381.584,281.461,381.2,283.645,380.05,285.444z M197.872,267.957
			c1.62,6.616,4.195,12.804,7.626,18.45c-13.241-0.576-25.301-8.609-31.345-20.177h9.031c1.933,0,3.754-0.708,5.179-1.921
			c2.223,1.253,4.725,1.92,7.328,1.92h1.957C197.66,266.806,197.732,267.385,197.872,267.957z M207.003,212.362
			c0.684,0,1.367,0.036,2.046,0.088c-4.894,6.873-8.573,14.613-10.757,22.785h-2.6c-2.655,0-5.151,0.694-7.328,1.91
			c-1.396-1.188-3.202-1.909-5.179-1.909h-10.296C178.685,222.024,192.396,212.362,207.003,212.362z M300.27,250.406
			c0,20.421-16.917,37.674-36.941,37.674c-15.409,0-28.464-8.486-34.02-21.851h28.119c8.416,0,15.263-6.952,15.263-15.497
			c0-8.545-6.847-15.497-15.263-15.497h-26.643c6.396-12.723,18.876-20.941,32.544-20.941
			C284.044,214.294,300.27,230.156,300.27,250.406z" id="SVGID_1_"></path>
	</defs>
	<clipPath id="SVGID_2_">
		
	</clipPath>
	<g style="clip-path:url(#SVGID_2_);" id="wings">
		<g id="w3">
			<g>
				<g>
					<path d="M324.419,316.747c13.905-6.121,28.173-13.637,42.448-22.524
						c14.415-1.537,31.463-4.89,51.779-10.422c12.44,1.955,27.6,2.448,45.157,1.191
						C400.674,309.872,356.563,318.194,324.419,316.747z" style="fill:#1A1A1A;"></path>
				</g>
				<g>
					<path d="M319.295,143.796c-7.583,7.472-14.888,12.381-22.545,15.143
						c0.694-28.744-8.845-68.89-25.135-117.306c7.884,7.6,15.29,15.174,22.201,22.661
						C308.76,101.266,315.273,125.652,319.295,143.796z" style="fill:#1A1A1A;"></path>
				</g>
				<g>
					<path d="M147.708,186.507c8.742,4.475,15.868,8.275,22.115,11.756
						c-30.794,0.602-73.114,11.661-133.626,39.598c19.113-19.397,37.898-34.566,55.359-46.098
						C113.418,188.171,131.943,186.529,147.708,186.507z" style="fill:#1A1A1A;"></path>
				</g>
				<g>
					<path d="M189.277,333.637c3.028,5.655,6.427,11.444,10.242,17.332
						c4.325,22.696,13.599,46.744,24.163,68.082c-5.964,10.371-11.895,23.576-18.541,39.317
						C188.32,394.441,186.421,358.217,189.277,333.637z" style="fill:#1A1A1A;"></path>
				</g>
			</g>
			<g>
				<g>
					<path d="M297.274,289.207c2.57-4.092,10.259-9.518,2.626-7.91c32.321-15.022,48.445-42.599,58.59-60.956
						c7.45-27.197,23.417-20.96,13.827-133.338c15.735,98.355-1.39,108.653,9.887,102.367
						c-18.584,53.428-28.936,56.187-38.085,67.813C334.672,265.682,323.161,278.602,297.274,289.207z" style="fill:#1A1A1A;"></path>
				</g>
				<g>
					<path d="M292.448,200.967c-3.242-2.756-8.03-9.856-6.354-2.302
						c-18.175-31.767-46.609-46.966-66.483-56.82c-27.156-7.781-26.778-21.528-127.565-16.139
						c59.894-10.221,81.725-7.25,94.497-6.717c11.508,1.127,13.957-0.185,5.903-5.266c46.391,21.811,56.345,32.799,67,42.944
						C268.693,167.049,278.64,176.589,292.448,200.967z" style="fill:#1A1A1A;"></path>
				</g>
				<g>
					<path d="M205.469,211.309c-6.674,4.583-16.23,12.246-10.547,11.15
						c-20.898,14.708-26.819,24.465-35.753,33.442c-5.133,4.549-9.169,12.973-17.077,28.896
						c-6.995,17.916-17.863,43.332-15.575,127.894c-16.301-72.477-8.041-82.928-21.449-58.956
						c30.658-105.624,57.429-109.714,68.294-122.93C185.915,222.389,190.77,218.91,205.469,211.309z" style="fill:#1A1A1A;"></path>
				</g>
				<g>
					<path d="M215.65,296.421c5.892,7.921,16.541,19.539,14.793,13.657
						c13.408,19.537,22.261,25.586,30.583,34.157c4.104,5.095,12.385,8.485,27.715,15.678c17.469,6.115,41.986,16.033,127.951,9.3
						c-68.381,14.958-89.205,5.32-70.546,16.447c-102.882-24.735-99.667-48.241-113.08-57.822
						C225.912,316.564,221.938,310.872,215.65,296.421z" style="fill:#1A1A1A;"></path>
				</g>
			</g>
			<animateTransform type="rotate" restart="always" repeatCount="indefinite" fill="remove" dur="240s" attributeName="transform" additive="replace" accumulate="none" xmlns="http://www.w3.org/2000/svg"></animateTransform>
		</g>
		<g id="w2">
			<g>
				<g>
					<path d="M207.588,173.177c-12.63,0.814-25.942,2.616-39.651,5.488
						c-11.718-2.919-26.016-5.169-43.492-6.649c-9.175-5.086-20.895-9.806-34.991-13.842
						C145.959,156.756,182.851,162.856,207.588,173.177z" style="fill:#333333;"></path>
				</g>
				<g>
					<path d="M162.152,309.964c8.069-3.678,15.188-5.431,21.969-5.403
						c-8.76,22.292-12.774,56.43-13.87,98.969c-3.996-8.2-7.625-16.244-10.892-24.078
						C158.237,346.252,160.113,325.31,162.152,309.964z" style="fill:#333333;"></path>
				</g>
				<g>
					<path d="M308.616,325.599c-5.561-6-10.05-11.011-13.943-15.521c24.266,8.333,60.54,11.778,115.873,7.219
						c-20.5,9.713-39.534,16.211-56.493,20.242C335.921,334.101,320.958,330.09,308.616,325.599z" style="fill:#333333;"></path>
				</g>
				<g>
					<path d="M318.155,198.598c-0.753-5.291-1.757-10.791-3.059-16.489
						c3.105-18.994,2.723-40.461,0.558-60.177c7.632-6.41,16.047-15.046,25.747-25.462
						C336.286,151.296,327.417,180.182,318.155,198.598z" style="fill:#333333;"></path>
				</g>
			</g>
			<g>
				<g>
					<path d="M220.953,202.485c-3.181,2.467-10.748,4.514-4.316,5.438
						c-29.583,2.514-50.083,19.481-63.269,30.944c-13.604,19.15-24.314,9.705-48.938,100.374
						c15.807-81.454,32.15-84.615,21.53-82.921c29.815-36.491,38.703-35.69,49.186-42.17
						C184.967,210.201,197.666,203.383,220.953,202.485z" style="fill:#333333;"></path>
				</g>
				<g>
					<path d="M199.503,272.907c1.749,3.083,3.465,10.008,4.313,3.618
						c5.139,30.051,23.041,50.072,35.774,63.464c19.023,13.852,14.798,24.499,95.196,49.096
						c-49.785-9.125-66.017-17.691-75.857-21.76c-8.682-4.171-10.973-3.845-6.124,2.433c-30.062-30.328-34.709-41.771-40.146-52.755
						C208.393,306.236,203.337,295.928,199.503,272.907z" style="fill:#333333;"></path>
				</g>
				<g>
					<path d="M270.514,289.68c6.532-1.678,16.199-4.942,11.44-5.709
						c20.556-5.534,27.978-11.475,37.535-15.944c5.317-2.092,10.883-7.529,21.623-17.727c10.595-12.018,26.364-28.797,48.749-95.615
						c-7.965,61.368-17.416,67.183-0.072,52.26c-54.184,73.878-76.299,69.425-88.579,76.66
						C288.981,286.601,284.187,287.936,270.514,289.68z" style="fill:#333333;"></path>
				</g>
				<g>
					<path d="M286.88,220.177c-2.346-7.882-7.356-20.016-7.67-14.914
						c-4.905-19.12-10.103-26.384-14.164-35.469c-1.754-5.159-7.265-10.18-17.203-20.19c-11.92-9.779-28.267-24.547-97.454-43.856
						c57.779,7.846,71.317,21.34,59.899,7.3c73.426,48.766,64.191,66.238,71.946,77.569
						C284.609,201.482,286.092,207.072,286.88,220.177z" style="fill:#333333;"></path>
				</g>
			</g>
			<animateTransform type="rotate" restart="always" repeatCount="indefinite" fill="remove" dur="120s" attributeName="transform" additive="replace" accumulate="none" xmlns="http://www.w3.org/2000/svg"></animateTransform>
		</g>
		<g id="w1">
			<g>
				<g>
					<path d="M181.917,284.78c0.317,10.974,1.469,22.57,3.537,34.543
						c-2.891,10.069-5.282,22.394-7.103,37.499c-4.692,7.797-9.144,17.812-13.077,29.908
						C165.784,337.702,172.208,305.907,181.917,284.78z" style="fill:#4D4D4D;"></path>
				</g>
				<g>
					<path d="M299.1,328.38c-2.94-7.109-4.241-13.334-4.008-19.212c19.055,8.281,48.527,12.811,85.37,15.071
						c-7.232,3.212-14.317,6.11-21.208,8.701C330.438,332.892,312.341,330.62,299.1,328.38z" style="fill:#4D4D4D;"></path>
				</g>
				<g>
					<path d="M317.164,201.89c-5.373,4.636-9.855,8.373-13.884,11.609
						c7.971-20.78,12.075-52.12,9.826-100.229c7.789,18.071,12.837,34.772,15.809,49.598
						C325.375,178.481,321.437,191.329,317.164,201.89z" style="fill:#4D4D4D;"></path>
				</g>
				<g>
					<path d="M207.359,189.711c-4.61,0.49-9.409,1.191-14.389,2.144c-16.371-3.276-34.992-3.607-52.151-2.336
						c-5.322-6.813-12.549-14.374-21.281-23.105C166.91,172.537,191.679,181.115,207.359,189.711z" style="fill:#4D4D4D;"></path>
				</g>
			</g>
			<g>
				<g>
					<path d="M207.736,274.096c2.041,2.833,3.583,9.457,4.581,3.909
						c1.268,25.723,15.346,44.017,24.878,55.801c16.182,12.383,7.665,21.377,85.509,45.515
						c-70.127-16.211-72.364-30.476-71.223-21.217c-30.716-26.971-29.749-34.651-35.044-43.938
						C213.317,305.53,207.797,294.311,207.736,274.096z" style="fill:#4D4D4D;"></path>
				</g>
				<g>
					<path d="M268.125,294.86c2.727-1.421,8.782-2.696,3.269-3.628c26.21-3.53,44.118-18.433,56.119-29.059
						c12.594-16.065,21.694-12.074,45.493-81.015c-9.444,42.878-17.369,56.686-21.199,65.092c-3.884,7.398-3.672,9.395,1.92,5.384
						c-27.217,25.128-37.28,28.804-46.97,33.179C297.292,288.179,288.2,292.244,268.125,294.86z" style="fill:#4D4D4D;"></path>
				</g>
				<g>
					<path d="M284.852,233.815c-1.254-5.714-3.785-14.196-4.597-10.093
						c-4.164-17.99-9.086-24.607-12.667-33.03c-1.65-4.674-6.192-9.666-14.702-19.291c-10.093-9.555-24.153-23.742-81.389-45.205
						c52.956,8.795,57.706,17.167,45.303,1.671c62.378,49.247,57.836,68.282,63.73,79.15
						C282.751,217.711,283.762,221.908,284.852,233.815z" style="fill:#4D4D4D;"></path>
				</g>
				<g>
					<path d="M225.103,217.488c-6.905,1.791-17.579,5.761-13.166,6.19
						c-16.726,3.664-23.183,7.946-31.184,11.187c-4.527,1.362-9.049,5.984-18.033,14.292c-8.844,10.032-22.151,23.749-41.019,83.133
						c8.58-49.848,20.696-61.169,8.172-51.702c44.536-62.153,59.399-53.609,69.461-59.983
						C208.826,218.881,213.718,217.768,225.103,217.488z" style="fill:#4D4D4D;"></path>
				</g>
			</g>
			<animateTransform type="rotate" restart="always" repeatCount="indefinite" fill="remove" dur="60s" attributeName="transform" additive="replace" accumulate="none" xmlns="http://www.w3.org/2000/svg"></animateTransform>
		</g>
	</g>
</g>
<g id="eol_2_">
	<path d="M313.5,205.67c3.132-0.694,6.376-1.088,9.714-1.088c5.625,0,10.994,1.004,15.951,2.84l5.119-13.449
		c-6.55-2.514-13.644-3.918-21.07-3.918c-7.888,0-15.405,1.577-22.299,4.378C305.582,197.626,309.786,201.426,313.5,205.67z" style="fill:#E6E6E6;"></path>
	<path d="M361.176,273.54c-7.964,12.691-21.987,20.909-37.961,20.909c-3.335,0-6.575-0.391-9.704-1.082
		c-3.715,4.247-7.923,8.05-12.592,11.246c6.893,2.8,14.41,4.377,22.296,4.377c21.057,0,39.544-11.357,50.095-27.856L361.176,273.54z" style="fill:#E6E6E6;"></path>
	<path d="M215.234,293.682c-2.665,0.487-5.413,0.781-8.221,0.781c-21.819,0-40.049-16.024-44.096-36.233
		h20.267c-1.251-1.956-2.02-4.839-2.02-7.497c0-2.658,0.769-7.497,2.02-7.497h-20.813c2.893-20.861,21.847-38.874,44.632-38.874
		c2.819,0,5.567,0.383,8.242,0.859c3.806-4.29,8.114-8.068,12.898-11.264c-6.573-2.528-13.686-4.149-21.14-4.149
		c-30.817,0-56.223,24.744-59.171,53.428h-13.879c-4.011,0-7.263,3.485-7.263,7.497c0,4.011,3.252,7.497,7.263,7.497h14.448
		c4.223,28.684,28.846,50.774,58.681,50.774c7.425,0,14.475-1.454,21.028-4.005C223.342,301.803,219.03,297.966,215.234,293.682z" style="fill:#E6E6E6;"></path>
	<path d="M322.796,250.43c0-32.791-26.677-58.663-59.467-58.663c-27.648,0-50.88,20.177-57.509,46.254h15.15
		c6.158-18.254,22.796-31.727,42.359-31.727c24.781,0,44.941,19.333,44.941,44.112s-20.16,45.674-44.941,45.674
		c-19.822,0-36.656-11.773-42.612-30.026h-15.075c6.385,26.076,29.791,44.138,57.687,44.138
		C296.12,310.191,322.796,283.221,322.796,250.43z" style="fill:#E6E6E6;"></path>
	<path d="M195.691,258.229h61.737c4.011,0,7.263-3.486,7.263-7.497s-3.252-7.497-7.263-7.497h-61.737
		c-4.011,0-7.263,3.485-7.263,7.497C188.427,254.745,191.678,258.229,195.691,258.229z" style="fill:#E6E6E6;"></path>
</g>
</svg>
