<svg viewBox="0 0 2289.8 2289.8" xmlns:xlink="http://www.w3.org/1999/xlink" version="1.1" xmlns="http://www.w3.org/2000/svg" data-name="Livello 1" id="Livello_1">
  <defs>
    <style>
      .cls-1 {
        fill: #185c37;
      }

      .cls-1, .cls-2, .cls-3, .cls-4, .cls-5, .cls-6, .cls-7, .cls-8 {
        stroke-width: 0px;
      }

      .cls-2 {
        fill: url(#_未命名的渐变);
      }

      .cls-3 {
        fill: #33c481;
      }

      .cls-4 {
        opacity: .1;
      }

      .cls-4, .cls-7 {
        fill: #000;
        isolation: isolate;
      }

      .cls-5 {
        fill: #107c41;
      }

      .cls-6 {
        fill: #21a366;
      }

      .cls-7 {
        opacity: .2;
      }

      .cls-8 {
        fill: #fff;
      }
    </style>
    <linearGradient gradientUnits="userSpaceOnUse" gradientTransform="translate(0 3629.8) scale(1 -1)" y2="1822.9" x2="968" y1="3147" x1="203.5" data-name="未命名的渐变" id="_未命名的渐变">
      <stop stop-color="#18884f" offset="0"></stop>
      <stop stop-color="#117e43" offset=".5"></stop>
      <stop stop-color="#0b6631" offset="1"></stop>
    </linearGradient>
  </defs>
  <path d="M1437.8,1091.7l-905.3-159.8v1180.4c0,53.9,43.7,97.6,97.6,97.6h1562c53.9,0,97.6-43.7,97.6-97.6h0v-434.9l-851.9-585.7Z" class="cls-1"></path>
  <path d="M1437.8,79.9h-807.7c-53.9,0-97.6,43.7-97.6,97.6h0v434.9l905.2,532.5,479.2,159.8,372.8-159.8v-532.5L1437.8,79.9Z" class="cls-6"></path>
  <path d="M532.5,612.4h905.2v532.5h-905.2v-532.5Z" class="cls-5"></path>
  <path d="M1180.4,505.9h-647.9v1331.2h647.9c53.8-.2,97.4-43.8,97.6-97.6V603.5c-.2-53.8-43.8-97.4-97.6-97.6Z" class="cls-4"></path>
  <path d="M1127.1,559.1h-594.6v1331.2h594.6c53.8-.2,97.4-43.8,97.6-97.6V656.7c0-53.8-43.7-97.4-97.6-97.6Z" class="cls-7"></path>
  <path d="M1127.1,559.1h-594.6v1224.8h594.6c53.8-.2,97.4-43.8,97.6-97.6V656.8c0-53.9-43.7-97.5-97.6-97.7Z" class="cls-7"></path>
  <path d="M1073.9,559.1h-541.4v1224.8h541.4c53.8-.2,97.4-43.8,97.6-97.6V656.8c-.2-53.9-43.8-97.5-97.6-97.7Z" class="cls-7"></path>
  <path d="M97.6,559.1h976.3c53.9,0,97.6,43.7,97.6,97.6v976.3c0,53.9-43.7,97.6-97.6,97.6H97.6c-53.9,0-97.6-43.7-97.6-97.6v-976.2c0-53.9,43.7-97.7,97.6-97.7Z" class="cls-2"></path>
  <path d="M2192.1,79.9h-754.4v532.5h852V177.5c0-53.9-43.6-97.6-97.6-97.6h0Z" class="cls-3"></path>
  <path d="M1437.8,1144.9h852v532.5h-852v-532.5Z" class="cls-5"></path>
  <g>
    <rect height="134.9" width="792.5" y="1077.8" x="189.3" class="cls-8"></rect>
    <path d="M189.3,1008.9h143.4v-46.4h649.5v-134.9H189.3v181.3Z" class="cls-8"></path>
    <path d="M332.7,1280.4h-143.4v181.7h792.5v-134.5H332.3c.4-12.7.4-47.2.4-47.2Z" class="cls-8"></path>
  </g>
</svg>